<svg xmlns="http://www.w3.org/2000/svg" viewBox="0 0 512 512"><rect width="512" height="512" rx="50" fill="#43a4eb"/><path d="M 118 208.5 L 394 208.5 L 361 158.5 Q 357 151.5, 348 151.5 L 164 151.5 Q 155 151.5, 151 158.5 Z" fill="#ffffff"/><path d="M 125 216.5 L 225 216.5 L 225 238.5 Q 225 254.5, 241 254.5 L 271 254.5 Q 287 254.5, 287 238.5 L 287 216.5 L 387 216.5 Q 399 216.5, 399 228.5 L 399 344.5 Q 399 356.5, 387 356.5 L 125 356.5 Q 113 356.5, 113 344.5 L 113 228.5 Q 113 216.5, 125 216.5 Z" fill="#ffffff"/></svg>